{
	"asset":{
		"generator":"Khronos glTF Blender I/O v4.3.47",
		"version":"2.0"
	},
	"scene":0,
	"scenes":[
		{
			"name":"Scene",
			"nodes":[
				0
			]
		}
	],
	"nodes":[
		{
			"mesh":0,
			"name":"Cube",
			"rotation":[
				0,
				0.7071068286895752,
				0,
				0.7071068286895752
			],
			"scale":[
				0.0471990704536438,
				0.027083583176136017,
				0.04784689098596573
			],
			"translation":[
				0,
				0.0819999948143959,
				0
			]
		}
	],
	"materials":[
		{
			"doubleSided":true,
			"name":"Material.001",
			"pbrMetallicRoughness":{
				"baseColorFactor":[
					0.797468900680542,
					0.7727925777435303,
					0.7619779109954834,
					1
				],
				"metallicFactor":0,
				"roughnessFactor":0.2302631437778473
			}
		},
		{
			"doubleSided":true,
			"name":"Material.002",
			"pbrMetallicRoughness":{
				"baseColorFactor":[
					0,
					0,
					0,
					1
				],
				"metallicFactor":0,
				"roughnessFactor":0.5
			}
		},
		{
			"doubleSided":true,
			"name":"Material.003",
			"pbrMetallicRoughness":{
				"baseColorFactor":[
					0,
					0.0062071881256997585,
					0.8004899024963379,
					1
				],
				"metallicFactor":0,
				"roughnessFactor":0.5
			}
		}
	],
	"meshes":[
		{
			"name":"Cube.001",
			"primitives":[
				{
					"attributes":{
						"POSITION":0,
						"NORMAL":1,
						"TEXCOORD_0":2
					},
					"indices":3,
					"material":0
				},
				{
					"attributes":{
						"POSITION":4,
						"NORMAL":5,
						"TEXCOORD_0":6
					},
					"indices":7,
					"material":1
				},
				{
					"attributes":{
						"POSITION":8,
						"NORMAL":9,
						"TEXCOORD_0":10
					},
					"indices":11,
					"material":2
				}
			]
		}
	],
	"accessors":[
		{
			"bufferView":0,
			"componentType":5126,
			"count":38678,
			"max":[
				1.0449999570846558,
				8.045000076293945,
				1.0449999570846558
			],
			"min":[
				-1.073685884475708,
				-3.0318198204040527,
				-1.0449999570846558
			],
			"type":"VEC3"
		},
		{
			"bufferView":1,
			"componentType":5126,
			"count":38678,
			"type":"VEC3"
		},
		{
			"bufferView":2,
			"componentType":5126,
			"count":38678,
			"type":"VEC2"
		},
		{
			"bufferView":3,
			"componentType":5123,
			"count":149391,
			"type":"SCALAR"
		},
		{
			"bufferView":4,
			"componentType":5126,
			"count":457,
			"max":[
				-1.0100462436676025,
				3.6668107509613037,
				0.7818198204040527
			],
			"min":[
				-1.073685884475708,
				2.853170871734619,
				-0.7818198204040527
			],
			"type":"VEC3"
		},
		{
			"bufferView":5,
			"componentType":5126,
			"count":457,
			"type":"VEC3"
		},
		{
			"bufferView":6,
			"componentType":5126,
			"count":457,
			"type":"VEC2"
		},
		{
			"bufferView":7,
			"componentType":5123,
			"count":1386,
			"type":"SCALAR"
		},
		{
			"bufferView":8,
			"componentType":5126,
			"count":1670,
			"max":[
				0.7886406779289246,
				7.061544895172119,
				0.8136362433433533
			],
			"min":[
				-0.8125526309013367,
				6.471052646636963,
				-0.8137144446372986
			],
			"type":"VEC3"
		},
		{
			"bufferView":9,
			"componentType":5126,
			"count":1670,
			"type":"VEC3"
		},
		{
			"bufferView":10,
			"componentType":5126,
			"count":1670,
			"type":"VEC2"
		},
		{
			"bufferView":11,
			"componentType":5123,
			"count":4551,
			"type":"SCALAR"
		}
	],
	"bufferViews":[
		{
			"buffer":0,
			"byteLength":464136,
			"byteOffset":0,
			"target":34962
		},
		{
			"buffer":0,
			"byteLength":464136,
			"byteOffset":464136,
			"target":34962
		},
		{
			"buffer":0,
			"byteLength":309424,
			"byteOffset":928272,
			"target":34962
		},
		{
			"buffer":0,
			"byteLength":298782,
			"byteOffset":1237696,
			"target":34963
		},
		{
			"buffer":0,
			"byteLength":5484,
			"byteOffset":1536480,
			"target":34962
		},
		{
			"buffer":0,
			"byteLength":5484,
			"byteOffset":1541964,
			"target":34962
		},
		{
			"buffer":0,
			"byteLength":3656,
			"byteOffset":1547448,
			"target":34962
		},
		{
			"buffer":0,
			"byteLength":2772,
			"byteOffset":1551104,
			"target":34963
		},
		{
			"buffer":0,
			"byteLength":20040,
			"byteOffset":1553876,
			"target":34962
		},
		{
			"buffer":0,
			"byteLength":20040,
			"byteOffset":1573916,
			"target":34962
		},
		{
			"buffer":0,
			"byteLength":13360,
			"byteOffset":1593956,
			"target":34962
		},
		{
			"buffer":0,
			"byteLength":9102,
			"byteOffset":1607316,
			"target":34963
		}
	],
	"buffers":[
		{
			"byteLength":1616420,
			"uri":"cube.bin"
		}
	]
}
