{
	"asset":{
		"generator":"Khronos glTF Blender I/O v4.3.47",
		"version":"2.0"
	},
	"extensionsUsed":[
		"KHR_materials_transmission",
		"KHR_materials_ior"
	],
	"scene":0,
	"scenes":[
		{
			"name":"Scene",
			"nodes":[
				0
			]
		}
	],
	"nodes":[
		{
			"mesh":0,
			"name":"Greenhouse",
			"scale":[
				1.0542198419570923,
				1,
				0.5380300283432007
			],
			"translation":[
				0,
				1.0342483520507812,
				0
			]
		}
	],
	"materials":[
		{
			"alphaMode":"BLEND",
			"doubleSided":true,
			"extensions":{
				"KHR_materials_transmission":{
					"transmissionFactor":1
				},
				"KHR_materials_ior":{
					"ior":2.25
				}
			},
			"name":"Glass",
			"pbrMetallicRoughness":{
				"baseColorFactor":[
					1,
					0.9113287925720215,
					0.9380600452423096,
					0.17795276641845703
				],
				"metallicFactor":0,
				"roughnessFactor":0.5
			}
		},
		{
			"doubleSided":true,
			"name":"Metal-Frame",
			"pbrMetallicRoughness":{
				"baseColorFactor":[
					0.596325695514679,
					0.6048996448516846,
					0.587821900844574,
					1
				],
				"roughnessFactor":0.5
			}
		}
	],
	"meshes":[
		{
			"name":"Cube",
			"primitives":[
				{
					"attributes":{
						"POSITION":0,
						"NORMAL":1,
						"TEXCOORD_0":2
					},
					"indices":3,
					"material":0
				},
				{
					"attributes":{
						"POSITION":4,
						"NORMAL":5,
						"TEXCOORD_0":6
					},
					"indices":7,
					"material":1
				}
			]
		}
	],
	"accessors":[
		{
			"bufferView":0,
			"componentType":5126,
			"count":623,
			"max":[
				4.704287052154541,
				2.4322972297668457,
				9.254565238952637
			],
			"min":[
				-4.704287052154541,
				-1,
				-9.254565238952637
			],
			"type":"VEC3"
		},
		{
			"bufferView":1,
			"componentType":5126,
			"count":623,
			"type":"VEC3"
		},
		{
			"bufferView":2,
			"componentType":5126,
			"count":623,
			"type":"VEC2"
		},
		{
			"bufferView":3,
			"componentType":5123,
			"count":1272,
			"type":"SCALAR"
		},
		{
			"bufferView":4,
			"componentType":5126,
			"count":33813,
			"max":[
				4.7428436279296875,
				2.4684720039367676,
				9.293161392211914
			],
			"min":[
				-4.7428436279296875,
				-1.0362340211868286,
				-9.293161392211914
			],
			"type":"VEC3"
		},
		{
			"bufferView":5,
			"componentType":5126,
			"count":33813,
			"type":"VEC3"
		},
		{
			"bufferView":6,
			"componentType":5126,
			"count":33813,
			"type":"VEC2"
		},
		{
			"bufferView":7,
			"componentType":5123,
			"count":47196,
			"type":"SCALAR"
		}
	],
	"bufferViews":[
		{
			"buffer":0,
			"byteLength":7476,
			"byteOffset":0,
			"target":34962
		},
		{
			"buffer":0,
			"byteLength":7476,
			"byteOffset":7476,
			"target":34962
		},
		{
			"buffer":0,
			"byteLength":4984,
			"byteOffset":14952,
			"target":34962
		},
		{
			"buffer":0,
			"byteLength":2544,
			"byteOffset":19936,
			"target":34963
		},
		{
			"buffer":0,
			"byteLength":405756,
			"byteOffset":22480,
			"target":34962
		},
		{
			"buffer":0,
			"byteLength":405756,
			"byteOffset":428236,
			"target":34962
		},
		{
			"buffer":0,
			"byteLength":270504,
			"byteOffset":833992,
			"target":34962
		},
		{
			"buffer":0,
			"byteLength":94392,
			"byteOffset":1104496,
			"target":34963
		}
	],
	"buffers":[
		{
			"byteLength":1198888,
			"uri":"greenhouse.bin"
		}
	]
}
